<?xml version="1.0" standalone="no"?>
<!DOCTYPE svg PUBLIC "-//W3C//DTD SVG 20010904//EN"
 "http://www.w3.org/TR/2001/REC-SVG-20010904/DTD/svg10.dtd">
<svg version="1.0" xmlns="http://www.w3.org/2000/svg"
 width="91.000000pt" height="104.000000pt" viewBox="0 0 91.000000 104.000000"
 preserveAspectRatio="xMidYMid meet">
<metadata>
Created by potrace 1.16, written by Peter Selinger 2001-2019
</metadata>
<g transform="translate(0.000000,104.000000) scale(0.100000,-0.100000)"
fill="#000000" stroke="none">
<path d="M223 1013 c-23 -26 -25 -33 -19 -88 10 -90 35 -415 36 -457 l0 -38
173 0 173 0 69 -165 c38 -91 74 -164 80 -161 5 2 47 19 93 37 87 34 100 51 68
95 -14 18 -16 18 -63 1 -26 -10 -49 -14 -51 -10 -1 4 -31 73 -66 153 l-63 145
-162 3 -161 2 0 25 0 25 115 0 115 0 0 45 0 45 -120 0 -120 0 0 44 c0 24 -3
63 -6 88 -6 43 -5 45 25 58 39 16 51 37 51 90 0 58 -33 90 -95 90 -37 0 -51
-5 -72 -27z"/>
<path d="M139 621 c-58 -43 -86 -78 -120 -155 -31 -71 -24 -208 15 -284 33
-64 92 -123 154 -154 69 -34 205 -38 283 -9 65 25 136 83 164 135 l19 35 -29
61 c-16 33 -31 60 -34 60 -4 0 -14 -23 -24 -50 -34 -95 -126 -160 -227 -160
-72 0 -126 26 -178 85 -86 97 -82 232 8 320 37 36 40 44 40 91 0 29 -4 55 -9
58 -4 3 -33 -12 -62 -33z"/>
</g>
</svg>
