<?xml version="1.0" standalone="no"?>
<!DOCTYPE svg PUBLIC "-//W3C//DTD SVG 20010904//EN"
 "http://www.w3.org/TR/2001/REC-SVG-20010904/DTD/svg10.dtd">
<svg version="1.0" xmlns="http://www.w3.org/2000/svg"
 width="204.000000pt" height="225.000000pt" viewBox="0 0 204.000000 225.000000"
 preserveAspectRatio="xMidYMid meet">
<metadata>
Created by potrace 1.16, written by Peter Selinger 2001-2019
</metadata>
<g transform="translate(0.000000,225.000000) scale(0.100000,-0.100000)"
fill="#000000" stroke="none">
<path d="M618 2230 c-98 -52 -113 -187 -29 -263 100 -90 242 -42 272 90 29
131 -120 238 -243 173z"/>
<path d="M404 1950 c-12 -5 -33 -24 -47 -42 -28 -39 -249 -457 -313 -594 l-44
-94 0 -571 0 -571 34 -34 c28 -28 41 -34 78 -34 24 0 54 7 67 16 50 36 51 45
51 609 l0 525 69 138 c38 75 85 166 104 201 l35 64 17 -79 c40 -180 37 -179
324 -169 l215 7 28 28 c20 20 28 38 28 62 -1 37 -12 55 -54 82 -25 16 -46 18
-189 15 l-160 -4 -17 75 c-10 41 -30 129 -45 195 -24 103 -33 125 -61 153 -33
33 -74 41 -120 22z"/>
<path d="M1340 1517 c-24 -19 -21 -46 16 -119 19 -37 34 -70 34 -73 0 -3 -22
-5 -49 -5 l-49 0 11 29 c10 27 7 33 -25 73 -65 79 -87 98 -111 98 -63 0 -77
-57 -29 -116 l31 -38 -35 -48 c-21 -28 -38 -65 -41 -88 -5 -34 -1 -43 25 -70
l30 -30 167 0 c107 0 174 4 188 12 66 34 63 82 -13 233 -75 148 -106 178 -150
142z"/>
<path d="M1598 1381 c-83 -74 4 -207 102 -156 30 16 60 65 60 101 0 9 -15 31
-34 50 -44 44 -83 45 -128 5z"/>
<path d="M678 1080 c-36 -28 -41 -64 -12 -95 l23 -25 386 0 385 0 0 -475 0
-475 210 0 210 0 0 475 0 475 51 0 c60 0 87 12 99 46 12 31 -4 68 -37 83 -17
8 -214 11 -657 11 -616 0 -634 -1 -658 -20z m1112 -550 l0 -430 -120 0 -120 0
0 430 0 430 120 0 120 0 0 -430z"/>
</g>
</svg>
