<?xml version="1.0" standalone="no"?>
<!DOCTYPE svg PUBLIC "-//W3C//DTD SVG 20010904//EN"
 "http://www.w3.org/TR/2001/REC-SVG-20010904/DTD/svg10.dtd">
<svg version="1.0" xmlns="http://www.w3.org/2000/svg"
 width="89.000000pt" height="104.000000pt" viewBox="0 0 89.000000 104.000000"
 preserveAspectRatio="xMidYMid meet">
<metadata>
Created by potrace 1.16, written by Peter Selinger 2001-2019
</metadata>
<g transform="translate(0.000000,104.000000) scale(0.100000,-0.100000)"
fill="#000000" stroke="none">
<path d="M0 940 l0 -100 40 0 c34 0 40 3 40 22 0 21 0 21 26 -2 l25 -24 -25
-19 c-33 -24 -33 -37 2 -70 35 -33 39 -33 64 -2 33 43 40 27 11 -27 -23 -45
-28 -65 -28 -134 0 -70 4 -88 30 -139 34 -66 97 -121 167 -145 41 -14 43 -17
46 -57 l3 -43 -60 0 -61 0 0 -50 0 -50 60 0 60 0 0 -50 0 -50 45 0 45 0 0 50
0 50 60 0 60 0 0 50 0 50 -55 0 -55 0 0 43 0 43 65 28 c69 30 110 69 147 139
33 62 33 193 -1 261 l-24 48 62 61 61 62 0 -58 0 -57 40 0 40 0 0 135 0 135
-135 0 -135 0 0 -40 0 -40 62 0 63 0 -66 -65 -65 -66 -49 23 c-69 31 -171 31
-239 0 -56 -25 -74 -20 -33 10 36 26 34 37 -9 72 l-36 29 -22 -28 -21 -27 -19
21 c-17 19 -17 21 -3 21 13 0 17 10 17 45 l0 45 -100 0 -100 0 0 -100z m540
-180 c72 -37 117 -125 106 -205 -14 -90 -111 -175 -200 -175 -84 0 -172 69
-196 155 -28 100 39 211 148 245 36 12 96 4 142 -20z"/>
</g>
</svg>
